<?xml version="1.0" standalone="no"?>
<!DOCTYPE svg PUBLIC "-//W3C//DTD SVG 20010904//EN"
 "http://www.w3.org/TR/2001/REC-SVG-20010904/DTD/svg10.dtd">
<svg version="1.0" xmlns="http://www.w3.org/2000/svg"
 width="640.000000pt" height="640.000000pt" viewBox="0 0 640.000000 640.000000"
 preserveAspectRatio="xMidYMid meet">
<metadata>
Created by potrace 1.11, written by Peter Selinger 2001-2013
</metadata>
<g transform="translate(0.000000,640.000000) scale(0.100000,-0.100000)"
fill="#000000" stroke="none">
<path d="M17 4562 c-16 -17 -17 -126 -17 -1358 0 -1196 2 -1342 16 -1362 l15
-22 3162 0 c2846 0 3165 2 3185 16 l22 15 0 1342 c0 1199 -2 1345 -16 1365
l-15 22 -3168 0 c-3056 0 -3168 -1 -3184 -18z m1258 -1239 l0 -188 190 -5 190
-5 0 -175 0 -175 -183 -2 c-101 0 -187 -4 -190 -8 -4 -4 -8 -84 -8 -178 -1
-95 -2 -177 -3 -183 -1 -13 -350 -20 -352 -7 0 5 -1 91 -2 192 l-2 184 -187
-1 c-138 0 -188 3 -189 11 -1 18 -1 309 0 330 1 16 17 17 189 17 l189 0 -1
190 -1 190 180 0 180 0 0 -187z m3337 -440 c41 -16 109 -87 133 -137 36 -74
19 -210 -32 -269 -64 -75 -120 -101 -213 -102 -64 0 -82 4 -128 29 -92 52
-143 141 -138 246 8 191 194 307 378 233z m845 -5 c90 -45 153 -149 148 -243
-5 -86 -26 -136 -77 -185 -136 -130 -344 -95 -427 71 -58 116 -28 251 73 330
75 59 196 70 283 27z m-2705 -185 c25 -22 24 -84 -2 -108 -17 -15 -42 -18
-201 -19 -173 -1 -238 7 -240 31 0 4 -2 19 -5 31 -2 13 4 37 13 53 l17 29 200
0 c172 0 202 -2 218 -17z m886 -8 c36 -45 12 -113 -40 -116 -10 0 -92 -1 -183
-1 -91 0 -173 1 -183 1 -20 1 -40 31 -47 69 -3 16 4 32 20 48 24 24 26 24 219
24 l195 0 19 -25z"/>
</g>
</svg>
