<?xml version="1.0" standalone="no"?>
<!DOCTYPE svg PUBLIC "-//W3C//DTD SVG 20010904//EN"
 "http://www.w3.org/TR/2001/REC-SVG-20010904/DTD/svg10.dtd">
<svg version="1.0" xmlns="http://www.w3.org/2000/svg"
 width="640.000000pt" height="640.000000pt" viewBox="0 0 640.000000 640.000000"
 preserveAspectRatio="xMidYMid meet">
<metadata>
Created by potrace 1.11, written by Peter Selinger 2001-2013
</metadata>
<g transform="translate(0.000000,640.000000) scale(0.100000,-0.100000)"
fill="#000000" stroke="none">
<path d="M1435 4850 c-44 -9 -99 -25 -123 -35 -72 -30 -83 -52 -120 -240 l-34
-170 -46 -33 c-85 -58 -178 -159 -240 -257 -51 -83 -105 -236 -117 -335 -3
-25 -7 -58 -10 -75 -9 -57 -13 -84 -25 -162 -18 -125 -19 -137 -24 -160 -3
-12 -7 -46 -10 -75 -4 -29 -8 -62 -10 -73 -2 -11 -6 -41 -10 -66 -4 -25 -8
-57 -10 -70 -5 -29 -18 -116 -21 -144 -2 -11 -6 -40 -10 -65 -4 -25 -8 -54
-10 -65 -1 -11 -7 -54 -13 -95 -6 -41 -14 -95 -17 -120 -4 -25 -15 -99 -25
-165 -10 -66 -21 -140 -24 -165 -3 -25 -9 -65 -14 -90 -24 -131 23 -307 114
-427 60 -80 158 -151 261 -189 54 -21 91 -27 179 -29 100 -4 118 -1 190 24
118 41 208 103 280 196 18 22 114 202 214 400 101 198 189 368 195 378 11 15
17 11 58 -42 68 -86 191 -168 279 -187 92 -19 123 -22 185 -19 113 6 250 62
334 138 37 34 104 120 117 153 l12 29 312 0 c227 0 312 -3 315 -12 2 -6 18
-33 36 -59 172 -260 519 -328 776 -151 50 34 114 99 139 140 9 15 19 27 22 27
3 0 88 -163 189 -362 101 -200 198 -383 214 -408 65 -94 162 -171 270 -212 68
-26 78 -28 170 -35 273 -20 536 178 593 446 19 89 18 145 -6 302 -21 139 -24
161 -36 244 -3 28 -8 59 -10 70 -2 11 -7 40 -9 65 -3 25 -8 52 -10 60 -2 8 -7
42 -11 75 -3 33 -8 69 -10 80 -3 11 -7 36 -9 55 -3 19 -7 49 -10 65 -3 17 -7
48 -10 70 -6 46 -13 91 -19 122 -3 12 -7 48 -11 80 -3 32 -8 67 -10 78 -3 11
-7 36 -9 55 -13 91 -17 116 -21 135 -2 11 -7 47 -10 80 -3 33 -8 67 -11 76 -2
9 -6 36 -9 60 -23 228 -157 460 -344 599 -37 27 -67 58 -68 67 -1 10 -14 79
-29 153 -14 74 -27 141 -27 149 0 7 -16 28 -35 47 -90 88 -375 119 -586 65
-106 -28 -161 -63 -171 -107 -2 -11 -15 -80 -30 -154 -14 -74 -28 -144 -31
-155 -5 -20 -12 -20 -1181 -20 -1037 0 -1176 2 -1178 15 -2 8 -17 83 -34 167
-17 83 -31 154 -31 157 0 3 -11 17 -26 31 -79 80 -353 117 -549 75z m387 -519
c4 0 14 -8 22 -17 13 -13 16 -43 16 -167 0 -199 -11 -189 195 -191 131 -1 154
-3 169 -19 16 -16 18 -39 19 -218 0 -260 13 -243 -192 -244 -201 0 -191 10
-191 -190 0 -137 -2 -154 -19 -169 -17 -16 -44 -18 -216 -18 -256 0 -239 -13
-240 193 -1 196 9 186 -189 185 -205 -2 -191 -20 -191 239 -1 259 -13 242 175
243 175 0 163 -1 186 20 17 17 19 32 19 168 -1 203 -17 190 236 188 107 -1
197 -2 201 -3z m3279 -17 c19 -20 21 -32 21 -167 0 -199 -10 -190 190 -190
141 0 154 -2 171 -20 9 -11 17 -23 18 -26 0 -3 0 -93 1 -199 1 -252 13 -237
-187 -236 -201 1 -192 10 -193 -188 -2 -134 -4 -155 -21 -171 -16 -17 -37 -19
-215 -19 -258 0 -241 -13 -241 191 1 198 11 188 -189 187 -205 -2 -191 -20
-192 240 0 260 -15 242 194 242 197 -1 187 -11 187 194 1 122 3 150 17 165 15
17 35 18 217 18 190 0 201 -1 222 -21z m-2548 -1043 c151 -35 284 -170 316
-319 32 -149 -27 -323 -142 -415 -172 -140 -408 -132 -565 19 -174 168 -175
437 -1 606 51 50 150 103 209 113 19 3 35 7 37 8 6 6 102 -2 146 -12z m1567 4
c65 -9 158 -56 211 -107 216 -203 166 -552 -98 -687 -188 -95 -428 -30 -542
147 -168 262 -10 610 294 651 53 7 64 7 135 -4z"/>
<path d="M1571 4254 l-44 -44 87 0 c47 0 86 1 86 3 0 2 -19 21 -42 44 l-43 40
-44 -43z"/>
<path d="M1498 4102 c-2 -20 -2 -74 0 -119 l3 -81 58 -40 58 -41 56 40 c31 22
57 46 58 52 1 7 2 60 3 119 l1 108 -117 -1 -117 0 -3 -37z"/>
<path d="M1212 3733 l3 -116 114 -1 114 -1 43 59 43 59 -41 58 -41 59 -119 0
-119 0 3 -117z"/>
<path d="M1746 3794 c-39 -57 -39 -57 -22 -88 9 -17 28 -44 41 -60 23 -29 24
-29 139 -30 64 -1 116 2 116 7 1 9 1 192 0 212 0 12 -20 15 -117 15 l-118 0
-39 -56z"/>
<path d="M1093 3776 c-18 -18 -33 -37 -33 -43 0 -5 17 -26 38 -46 l38 -37 2
80 c1 44 -2 80 -6 79 -4 0 -22 -15 -39 -33z"/>
<path d="M2094 3730 l0 -80 43 42 43 42 -37 38 c-20 21 -40 38 -43 38 -3 0 -5
-36 -6 -80z"/>
<path d="M1555 3604 l-50 -34 -5 -110 c-3 -61 -3 -115 -2 -120 2 -6 53 -10
120 -10 l117 0 -1 114 c0 85 -4 117 -15 127 -23 23 -94 69 -105 68 -5 0 -31
-16 -59 -35z"/>
<path d="M1572 3213 l42 -43 25 23 c30 26 50 50 51 58 0 3 -36 5 -80 5 l-79
-1 41 -42z"/>
<path d="M4825 4304 c-29 -7 -88 -63 -104 -99 -46 -104 4 -218 110 -249 93
-28 191 17 225 104 31 76 5 165 -62 216 -28 22 -48 28 -92 30 -32 1 -66 0 -77
-2z"/>
<path d="M4394 3891 c-71 -33 -111 -106 -101 -187 21 -188 288 -217 350 -39
54 154 -101 295 -249 226z"/>
<path d="M5215 3882 c-75 -36 -116 -106 -109 -184 17 -176 250 -226 339 -74
41 70 31 158 -25 219 -48 51 -142 69 -205 39z"/>
<path d="M4833 3490 c-153 -36 -191 -241 -62 -327 117 -77 272 -4 283 133 10
126 -100 223 -221 194z"/>
<path d="M2413 3229 c-154 -18 -290 -139 -321 -286 -12 -55 -8 -150 9 -202 20
-62 79 -140 137 -182 223 -159 526 -38 582 235 33 158 -53 326 -203 400 -70
34 -127 43 -204 35z"/>
<path d="M3990 3228 c-161 -24 -282 -143 -313 -310 -29 -155 63 -327 210 -396
51 -24 70 -27 158 -27 91 0 105 3 159 30 210 106 275 361 142 554 -29 41 -103
100 -156 124 -51 23 -137 34 -200 25z"/>
</g>
</svg>
