<?xml version="1.0" standalone="no"?>
<!DOCTYPE svg PUBLIC "-//W3C//DTD SVG 20010904//EN"
 "http://www.w3.org/TR/2001/REC-SVG-20010904/DTD/svg10.dtd">
<svg version="1.0" xmlns="http://www.w3.org/2000/svg"
 width="40pt" height="40pt" viewBox="0 0 640.000000 320.000000"
 preserveAspectRatio="xMidYMid meet">

<g transform="translate(0.000000,320.000000) scale(0.100000,-0.100000)"
fill="#FFFFFF" stroke="none">
<path d="M17 2962 c-16 -17 -17 -126 -17 -1364 0 -1290 1 -1346 18 -1361 17
-16 253 -17 3184 -17 3053 0 3165 1 3181 18 16 17 17 126 17 1364 0 1290 -1
1346 -18 1361 -17 16 -253 17 -3184 17 -3053 0 -3165 -1 -3181 -18z m1263
-1242 l0 -190 190 0 190 0 -2 -177 -3 -178 -187 -3 -188 -2 -2 -188 -3 -187
-177 -3 -178 -2 0 190 0 190 -190 0 -190 0 0 180 0 180 190 0 190 0 0 190 0
190 180 0 180 0 0 -190z m3325 -434 c81 -34 147 -124 160 -218 15 -100 -51
-220 -148 -270 -123 -62 -282 -12 -351 112 -27 48 -31 65 -31 130 1 87 20 132
83 194 74 71 190 92 287 52z m840 0 c91 -38 158 -139 159 -241 0 -79 -18 -129
-67 -183 -62 -66 -108 -86 -197 -87 -65 0 -82 4 -129 30 -142 78 -183 255 -91
388 71 101 209 141 325 93z m-2693 -193 c24 -22 24 -84 -1 -107 -16 -14 -43
-16 -222 -14 l-203 3 -15 26 c-16 29 -10 69 15 93 24 24 399 24 426 -1z m888
-10 c16 -20 20 -36 16 -58 -11 -52 -22 -55 -237 -55 -221 0 -229 2 -229 67 0
70 8 73 231 73 l198 0 21 -27z"/>
</g>
</svg>
