<?xml version="1.0" standalone="no"?>
<!DOCTYPE svg PUBLIC "-//W3C//DTD SVG 20010904//EN"
 "http://www.w3.org/TR/2001/REC-SVG-20010904/DTD/svg10.dtd">
<svg version="1.0" xmlns="http://www.w3.org/2000/svg"
 width="40pt" height="40pt" viewBox="0 0 640.000000 360.000000"
 preserveAspectRatio="xMidYMid meet">

<g transform="translate(0.000000,360.000000) scale(0.100000,-0.100000)"
fill="#FFFFFF" stroke="none">
<path d="M1477 3460 c-104 -19 -190 -51 -222 -83 -28 -29 -33 -47 -64 -203
-32 -166 -34 -171 -64 -189 -58 -35 -186 -167 -236 -244 -57 -89 -94 -172
-116 -262 -27 -109 -255 -1704 -255 -1781 0 -150 55 -276 169 -388 181 -179
429 -220 660 -108 47 23 89 55 146 113 l80 81 194 384 194 384 26 -35 c211
-287 617 -315 854 -59 30 32 66 78 79 102 l23 43 306 3 306 2 36 -58 c47 -76
103 -134 180 -183 172 -112 412 -112 582 -1 58 38 150 127 172 167 7 11 14 18
16 15 3 -3 87 -167 187 -365 101 -198 203 -388 226 -421 197 -280 617 -312
863 -66 106 107 170 254 171 389 0 29 -56 438 -125 909 -133 907 -140 942
-211 1073 -65 119 -165 232 -262 296 -48 32 -43 18 -78 205 -15 80 -33 157
-40 172 -69 135 -593 158 -742 31 -30 -26 -34 -37 -63 -183 -16 -85 -34 -165
-39 -177 l-10 -23 -1170 0 -1170 0 -5 23 c-3 12 -19 88 -35 169 -16 81 -34
155 -41 166 -38 60 -174 102 -354 107 -66 2 -142 0 -168 -5z m360 -542 c22
-21 23 -28 23 -171 0 -126 3 -153 17 -169 14 -16 34 -18 171 -18 131 0 158 -3
174 -17 16 -15 18 -35 18 -221 0 -177 -2 -208 -17 -224 -14 -16 -33 -18 -166
-18 -205 0 -197 8 -197 -193 0 -126 -3 -153 -17 -169 -15 -16 -35 -18 -216
-18 -263 0 -247 -12 -247 193 0 126 -3 153 -17 169 -14 16 -34 18 -174 18
-152 0 -158 1 -173 22 -13 18 -16 57 -16 217 0 256 -12 241 193 241 198 0 187
-11 187 180 0 134 2 150 21 174 l20 26 197 0 c187 0 197 -1 219 -22z m3260 0
c22 -21 23 -28 23 -171 0 -126 3 -153 17 -169 14 -16 34 -18 171 -18 131 0
158 -3 174 -17 16 -15 18 -35 18 -221 0 -177 -2 -208 -17 -224 -14 -16 -33
-18 -166 -18 -205 0 -197 8 -197 -193 0 -126 -3 -153 -17 -169 -15 -16 -35
-18 -218 -18 -256 0 -238 -14 -236 182 2 133 0 146 -19 171 l-21 27 -159 0
c-153 0 -159 1 -174 22 -13 18 -16 57 -16 217 0 256 -12 241 194 241 204 0
196 -8 196 193 0 126 3 153 17 169 15 16 35 18 211 18 187 0 197 -1 219 -22z
m-2464 -1075 c127 -60 216 -178 240 -317 31 -181 -69 -368 -240 -449 -64 -30
-75 -32 -178 -32 -103 0 -114 2 -178 32 -348 165 -318 655 48 786 38 13 73 17
145 14 82 -2 104 -7 163 -34z m1590 0 c127 -60 212 -172 238 -316 33 -179 -68
-369 -238 -450 -64 -30 -75 -32 -179 -32 -107 0 -112 1 -186 38 -341 168 -306
650 57 780 38 13 73 17 145 14 82 -2 104 -7 163 -34z"/>
<path d="M1572 2857 c-18 -18 -32 -36 -32 -40 0 -4 37 -7 82 -7 l82 0 -39 40
c-21 22 -44 40 -50 40 -6 0 -25 -15 -43 -33z"/>
<path d="M1500 2621 l0 -118 58 -41 59 -41 56 40 57 41 0 119 0 119 -115 0
-115 0 0 -119z"/>
<path d="M1210 2335 l0 -115 119 0 119 0 41 57 40 56 -41 59 -41 58 -118 0
-119 0 0 -115z"/>
<path d="M1748 2396 c-21 -30 -38 -58 -38 -62 0 -4 16 -31 37 -61 l36 -53 119
0 118 0 0 115 0 115 -117 0 -118 0 -37 -54z"/>
<path d="M1092 2377 c-18 -18 -32 -37 -32 -43 0 -5 18 -28 40 -49 l40 -39 0
82 c0 45 -4 82 -8 82 -4 0 -22 -15 -40 -33z"/>
<path d="M2090 2328 l0 -82 45 44 45 44 -37 38 c-20 21 -41 38 -45 38 -4 0 -8
-37 -8 -82z"/>
<path d="M1553 2202 l-53 -37 0 -117 0 -118 115 0 115 0 0 118 0 119 -53 36
c-30 21 -58 37 -63 37 -5 -1 -33 -18 -61 -38z"/>
<path d="M1540 1852 c0 -4 17 -25 38 -45 l38 -37 44 45 44 45 -82 0 c-45 0
-82 -4 -82 -8z"/>
<path d="M4789 2881 c-102 -64 -115 -200 -28 -283 83 -80 210 -65 276 32 110
160 -83 356 -248 251z"/>
<path d="M4395 2491 c-48 -22 -69 -44 -90 -94 -57 -138 70 -286 214 -247 133
36 180 192 88 297 -56 63 -134 80 -212 44z"/>
<path d="M5220 2485 c-100 -46 -142 -160 -94 -256 31 -62 115 -105 186 -96
123 16 191 147 139 264 -37 80 -151 124 -231 88z"/>
<path d="M4816 2085 c-152 -54 -167 -264 -24 -334 115 -55 244 12 264 137 13
84 -48 178 -133 201 -48 14 -59 13 -107 -4z"/>
<path d="M2343 1816 c-103 -33 -180 -105 -230 -213 -23 -49 -28 -72 -28 -143
0 -75 4 -93 32 -152 39 -82 100 -145 179 -184 53 -26 69 -29 159 -29 90 0 106
3 159 29 79 39 140 102 179 184 27 58 31 78 31 152 1 75 -3 93 -31 152 -39 82
-100 145 -178 183 -48 24 -74 30 -144 32 -54 2 -102 -2 -128 -11z"/>
<path d="M3923 1812 c-133 -48 -219 -149 -245 -291 -30 -158 60 -329 210 -399
50 -24 69 -27 157 -27 89 0 106 3 157 28 111 55 184 151 208 275 31 157 -56
324 -207 398 -75 37 -201 44 -280 16z"/>
</g>
</svg>
